<svg xmlns="http://www.w3.org/2000/svg" xmlns:xlink="http://www.w3.org/1999/xlink" enable-background="new 0 0 170.079 170.078" version="1.1" viewBox="0 0 170.079 170.078" xml:space="preserve" preserveAspectRatio="xMidYMid meet" style="width: 200px; height: 200px; transform-origin: 50% 50%; transform: scaleX(1) scaleY(1) rotate(0deg);"><g id="background" class=""/><g id="AESTHETICS_ICONS" class=""><g class=""><g class=""><path d="     M128.333,48.092V34.633c0-11.679-9.32-21.146-21-21.146s-21,9.468-21,21.146v13.459" fill="none" stroke="#2563EB" stroke-linecap="round" stroke-linejoin="round" stroke-miterlimit="10" stroke-width="4"/><rect fill="#F5F0FF" height="119" stroke="#2563EB" stroke-linecap="round" stroke-linejoin="round" stroke-miterlimit="10" stroke-width="4" width="81" x="77.333" y="37.592" class=""/><rect fill="#F5F0FF" height="46" stroke="#2563EB" stroke-linecap="round" stroke-linejoin="round" stroke-miterlimit="10" stroke-width="4" width="26" x="111.833" y="69.092" class=""/><rect fill="#F5F0FF" height="119" stroke="#2563EB" stroke-linecap="round" stroke-linejoin="round" stroke-miterlimit="10" stroke-width="4" width="14" x="77.333" y="37.592" class=""/><circle cx="146.736" cy="48.994" fill="#F5F0FF" r="3.342" class=""/><circle cx="104.088" cy="48.994" fill="#F5F0FF" r="3.342" class=""/><path d="     M146.333,48.092V34.633c0-11.679-9.321-21.146-21-21.146c-11.68,0-21,9.468-21,21.146v13.459" fill="none" stroke="#2563EB" stroke-linecap="round" stroke-linejoin="round" stroke-miterlimit="10" stroke-width="4"/></g><g class=""><rect fill="#F5F0FF" height="80" stroke="#2563EB" stroke-linecap="round" stroke-linejoin="round" stroke-miterlimit="10" stroke-width="4" width="89" x="11.746" y="76.592" class=""/><circle cx="56.239" cy="116.647" fill="#F5F0FF" r="12.255" stroke="#2563EB" stroke-linecap="round" stroke-linejoin="round" stroke-miterlimit="10" stroke-width="4" class=""/><circle cx="86.319" cy="85.731" fill="#F5F0FF" r="3.342" class=""/><circle cx="26.715" cy="85.731" fill="#F5F0FF" r="3.343" class=""/><path d="     M85.746,86.092v19.693c0,16.459-13.041,29.802-29.5,29.802c-16.46,0-29.5-13.343-29.5-29.802V86.092" fill="none" stroke="#2563EB" stroke-linecap="round" stroke-linejoin="round" stroke-miterlimit="10" stroke-width="4"/></g></g></g><g id="SAMPLE_TEXT" class=""/></svg>